<mxfile host="Electron" modified="2023-06-23T12:07:34.592Z" agent="Mozilla/5.0 (Windows NT 10.0; Win64; x64) AppleWebKit/537.36 (KHTML, like Gecko) draw.io/21.2.8 Chrome/112.0.5615.165 Electron/24.2.0 Safari/537.36" etag="G2p4dXIFdZCHC5y9x93A" version="21.2.8" type="device">
  <diagram name="Page-1" id="2fHl63eQg47_mUCCU2yv">
    <mxGraphModel dx="780" dy="504" grid="1" gridSize="10" guides="1" tooltips="1" connect="1" arrows="1" fold="1" page="1" pageScale="1" pageWidth="850" pageHeight="1100" background="#FFFFFF" math="0" shadow="0">
      <root>
        <mxCell id="0" />
        <mxCell id="1" parent="0" />
        <mxCell id="mO00xKd5A4uHnGazEyWP-3" value="User" style="shape=umlActor;verticalLabelPosition=bottom;verticalAlign=top;html=1;outlineConnect=0;" vertex="1" parent="1">
          <mxGeometry x="60" y="390" width="40" height="110" as="geometry" />
        </mxCell>
        <mxCell id="mO00xKd5A4uHnGazEyWP-5" value="Admin" style="shape=umlActor;verticalLabelPosition=bottom;verticalAlign=top;html=1;outlineConnect=0;" vertex="1" parent="1">
          <mxGeometry x="680" y="520" width="40" height="110" as="geometry" />
        </mxCell>
        <mxCell id="mO00xKd5A4uHnGazEyWP-17" style="edgeStyle=orthogonalEdgeStyle;rounded=0;orthogonalLoop=1;jettySize=auto;html=1;exitX=0.5;exitY=1;exitDx=0;exitDy=0;entryX=0.5;entryY=1;entryDx=0;entryDy=0;" edge="1" parent="1" source="mO00xKd5A4uHnGazEyWP-9" target="mO00xKd5A4uHnGazEyWP-9">
          <mxGeometry relative="1" as="geometry">
            <mxPoint x="360" y="830" as="targetPoint" />
          </mxGeometry>
        </mxCell>
        <mxCell id="mO00xKd5A4uHnGazEyWP-9" value="" style="swimlane;startSize=0;fillColor=none;strokeColor=none;gradientDirection=south;labelBackgroundColor=none;swimlaneFillColor=#FFFFCC;" vertex="1" parent="1">
          <mxGeometry x="240" y="40" width="280" height="1210" as="geometry" />
        </mxCell>
        <mxCell id="mO00xKd5A4uHnGazEyWP-11" value="Register" style="ellipse;whiteSpace=wrap;html=1;" vertex="1" parent="mO00xKd5A4uHnGazEyWP-9">
          <mxGeometry x="80" y="20" width="120" height="80" as="geometry" />
        </mxCell>
        <mxCell id="mO00xKd5A4uHnGazEyWP-10" value="Login" style="ellipse;whiteSpace=wrap;html=1;" vertex="1" parent="mO00xKd5A4uHnGazEyWP-9">
          <mxGeometry x="80" y="110" width="120" height="80" as="geometry" />
        </mxCell>
        <mxCell id="mO00xKd5A4uHnGazEyWP-12" value="Search Bus" style="ellipse;whiteSpace=wrap;html=1;" vertex="1" parent="mO00xKd5A4uHnGazEyWP-9">
          <mxGeometry x="80" y="200" width="120" height="80" as="geometry" />
        </mxCell>
        <mxCell id="mO00xKd5A4uHnGazEyWP-13" value="Book Bus" style="ellipse;whiteSpace=wrap;html=1;" vertex="1" parent="mO00xKd5A4uHnGazEyWP-9">
          <mxGeometry x="80" y="300" width="120" height="80" as="geometry" />
        </mxCell>
        <mxCell id="mO00xKd5A4uHnGazEyWP-14" value="Make payment" style="ellipse;whiteSpace=wrap;html=1;" vertex="1" parent="mO00xKd5A4uHnGazEyWP-9">
          <mxGeometry x="80" y="390" width="120" height="80" as="geometry" />
        </mxCell>
        <mxCell id="mO00xKd5A4uHnGazEyWP-15" value="Print Ticket" style="ellipse;whiteSpace=wrap;html=1;" vertex="1" parent="mO00xKd5A4uHnGazEyWP-9">
          <mxGeometry x="80" y="480" width="120" height="80" as="geometry" />
        </mxCell>
        <mxCell id="mO00xKd5A4uHnGazEyWP-16" value="Cancel Ticket" style="ellipse;whiteSpace=wrap;html=1;" vertex="1" parent="mO00xKd5A4uHnGazEyWP-9">
          <mxGeometry x="80" y="580" width="120" height="80" as="geometry" />
        </mxCell>
        <mxCell id="mO00xKd5A4uHnGazEyWP-31" value="Give Feedback" style="ellipse;whiteSpace=wrap;html=1;" vertex="1" parent="mO00xKd5A4uHnGazEyWP-9">
          <mxGeometry x="80" y="670" width="120" height="80" as="geometry" />
        </mxCell>
        <mxCell id="mO00xKd5A4uHnGazEyWP-32" value="Add/Delete Bus" style="ellipse;whiteSpace=wrap;html=1;" vertex="1" parent="mO00xKd5A4uHnGazEyWP-9">
          <mxGeometry x="80" y="760" width="120" height="80" as="geometry" />
        </mxCell>
        <mxCell id="mO00xKd5A4uHnGazEyWP-33" value="Update Bus" style="ellipse;whiteSpace=wrap;html=1;" vertex="1" parent="mO00xKd5A4uHnGazEyWP-9">
          <mxGeometry x="80" y="860" width="120" height="80" as="geometry" />
        </mxCell>
        <mxCell id="mO00xKd5A4uHnGazEyWP-34" value="View Bus" style="ellipse;whiteSpace=wrap;html=1;" vertex="1" parent="mO00xKd5A4uHnGazEyWP-9">
          <mxGeometry x="80" y="960" width="120" height="80" as="geometry" />
        </mxCell>
        <mxCell id="mO00xKd5A4uHnGazEyWP-51" value="Cancel Booking" style="ellipse;whiteSpace=wrap;html=1;" vertex="1" parent="mO00xKd5A4uHnGazEyWP-9">
          <mxGeometry x="80" y="1070" width="120" height="80" as="geometry" />
        </mxCell>
        <mxCell id="mO00xKd5A4uHnGazEyWP-24" value="" style="endArrow=classic;html=1;rounded=0;" edge="1" parent="1">
          <mxGeometry width="50" height="50" relative="1" as="geometry">
            <mxPoint x="100" y="430" as="sourcePoint" />
            <mxPoint x="310" y="290" as="targetPoint" />
          </mxGeometry>
        </mxCell>
        <mxCell id="mO00xKd5A4uHnGazEyWP-27" value="" style="endArrow=classic;html=1;rounded=0;exitX=1;exitY=0.3333333333333333;exitDx=0;exitDy=0;exitPerimeter=0;" edge="1" parent="1" source="mO00xKd5A4uHnGazEyWP-3" target="mO00xKd5A4uHnGazEyWP-13">
          <mxGeometry width="50" height="50" relative="1" as="geometry">
            <mxPoint x="90" y="220" as="sourcePoint" />
            <mxPoint x="160" y="260" as="targetPoint" />
          </mxGeometry>
        </mxCell>
        <mxCell id="mO00xKd5A4uHnGazEyWP-36" value="" style="endArrow=classic;html=1;rounded=0;exitX=1;exitY=0.3333333333333333;exitDx=0;exitDy=0;exitPerimeter=0;" edge="1" parent="1" source="mO00xKd5A4uHnGazEyWP-3">
          <mxGeometry width="50" height="50" relative="1" as="geometry">
            <mxPoint x="110" y="420" as="sourcePoint" />
            <mxPoint x="310" y="470" as="targetPoint" />
          </mxGeometry>
        </mxCell>
        <mxCell id="mO00xKd5A4uHnGazEyWP-37" value="" style="endArrow=classic;html=1;rounded=0;entryX=-0.033;entryY=0.413;entryDx=0;entryDy=0;entryPerimeter=0;" edge="1" parent="1" target="mO00xKd5A4uHnGazEyWP-10">
          <mxGeometry width="50" height="50" relative="1" as="geometry">
            <mxPoint x="100" y="430" as="sourcePoint" />
            <mxPoint x="150" y="380" as="targetPoint" />
          </mxGeometry>
        </mxCell>
        <mxCell id="mO00xKd5A4uHnGazEyWP-38" value="" style="endArrow=classic;html=1;rounded=0;entryX=0;entryY=0.5;entryDx=0;entryDy=0;" edge="1" parent="1" target="mO00xKd5A4uHnGazEyWP-11">
          <mxGeometry width="50" height="50" relative="1" as="geometry">
            <mxPoint x="100" y="430" as="sourcePoint" />
            <mxPoint x="150" y="380" as="targetPoint" />
          </mxGeometry>
        </mxCell>
        <mxCell id="mO00xKd5A4uHnGazEyWP-42" value="" style="endArrow=classic;html=1;rounded=0;" edge="1" parent="1">
          <mxGeometry width="50" height="50" relative="1" as="geometry">
            <mxPoint x="100" y="430" as="sourcePoint" />
            <mxPoint x="320" y="650" as="targetPoint" />
          </mxGeometry>
        </mxCell>
        <mxCell id="mO00xKd5A4uHnGazEyWP-44" value="" style="endArrow=classic;html=1;rounded=0;entryX=1.006;entryY=0.296;entryDx=0;entryDy=0;entryPerimeter=0;" edge="1" parent="1" target="mO00xKd5A4uHnGazEyWP-32">
          <mxGeometry width="50" height="50" relative="1" as="geometry">
            <mxPoint x="680" y="560" as="sourcePoint" />
            <mxPoint x="430" y="730" as="targetPoint" />
          </mxGeometry>
        </mxCell>
        <mxCell id="mO00xKd5A4uHnGazEyWP-45" value="" style="endArrow=classic;html=1;rounded=0;exitX=0;exitY=0.3333333333333333;exitDx=0;exitDy=0;exitPerimeter=0;entryX=1;entryY=0.5;entryDx=0;entryDy=0;" edge="1" parent="1" source="mO00xKd5A4uHnGazEyWP-5" target="mO00xKd5A4uHnGazEyWP-33">
          <mxGeometry width="50" height="50" relative="1" as="geometry">
            <mxPoint x="370" y="800" as="sourcePoint" />
            <mxPoint x="420" y="750" as="targetPoint" />
          </mxGeometry>
        </mxCell>
        <mxCell id="mO00xKd5A4uHnGazEyWP-46" value="" style="endArrow=classic;html=1;rounded=0;entryX=1;entryY=0.5;entryDx=0;entryDy=0;" edge="1" parent="1" target="mO00xKd5A4uHnGazEyWP-34">
          <mxGeometry width="50" height="50" relative="1" as="geometry">
            <mxPoint x="680" y="560" as="sourcePoint" />
            <mxPoint x="440" y="770" as="targetPoint" />
          </mxGeometry>
        </mxCell>
        <mxCell id="mO00xKd5A4uHnGazEyWP-48" value="" style="endArrow=classic;html=1;rounded=0;entryX=0;entryY=0.5;entryDx=0;entryDy=0;" edge="1" parent="1" target="mO00xKd5A4uHnGazEyWP-15">
          <mxGeometry width="50" height="50" relative="1" as="geometry">
            <mxPoint x="100" y="430" as="sourcePoint" />
            <mxPoint x="140" y="380" as="targetPoint" />
          </mxGeometry>
        </mxCell>
        <mxCell id="mO00xKd5A4uHnGazEyWP-50" value="Bus Ticket Booking Application" style="text;html=1;align=center;verticalAlign=middle;resizable=0;points=[];autosize=1;strokeColor=none;fillColor=none;fontStyle=1" vertex="1" parent="1">
          <mxGeometry x="275" width="200" height="30" as="geometry" />
        </mxCell>
        <mxCell id="mO00xKd5A4uHnGazEyWP-52" value="" style="endArrow=classic;html=1;rounded=0;entryX=0;entryY=0.5;entryDx=0;entryDy=0;" edge="1" parent="1" target="mO00xKd5A4uHnGazEyWP-31">
          <mxGeometry width="50" height="50" relative="1" as="geometry">
            <mxPoint x="100" y="430" as="sourcePoint" />
            <mxPoint x="150" y="380" as="targetPoint" />
          </mxGeometry>
        </mxCell>
        <mxCell id="mO00xKd5A4uHnGazEyWP-53" value="" style="endArrow=classic;html=1;rounded=0;entryX=1;entryY=0.5;entryDx=0;entryDy=0;" edge="1" parent="1" target="mO00xKd5A4uHnGazEyWP-10">
          <mxGeometry width="50" height="50" relative="1" as="geometry">
            <mxPoint x="680" y="560" as="sourcePoint" />
            <mxPoint x="730" y="510" as="targetPoint" />
          </mxGeometry>
        </mxCell>
        <mxCell id="mO00xKd5A4uHnGazEyWP-55" value="" style="endArrow=classic;html=1;rounded=0;entryX=1;entryY=0.5;entryDx=0;entryDy=0;" edge="1" parent="1" target="mO00xKd5A4uHnGazEyWP-51">
          <mxGeometry width="50" height="50" relative="1" as="geometry">
            <mxPoint x="680" y="560" as="sourcePoint" />
            <mxPoint x="730" y="510" as="targetPoint" />
          </mxGeometry>
        </mxCell>
      </root>
    </mxGraphModel>
  </diagram>
</mxfile>
